<svg id="whiteLogoIcon" viewBox="0 0 40 40" fill="none" xmlns="http://www.w3.org/2000/svg">
<path fill-rule="evenodd" clip-rule="evenodd" d="M2.1967 2.1967C0 4.3934 0 7.92893 0 15V25C0 32.0711 0 35.6066 2.1967 37.8033C4.3934 40 7.92893 40 15 40H25C32.0711 40 35.6066 40 37.8033 37.8033C40 35.6066 40 32.0711 40 25V15C40 7.92893 40 4.3934 37.8033 2.1967C35.6066 0 32.0711 0 25 0H15C7.92893 0 4.3934 0 2.1967 2.1967ZM9.98361 12.5304C8.33665 12.5304 7 11.18 7 9.51519C7 7.85034 8.33665 6.5 9.98361 6.5C11.6306 6.5 12.9672 7.85034 12.9672 9.51519C12.9672 11.18 11.6323 12.5304 9.98361 12.5304ZM7.42623 33.5V14.6978H12.541V33.5H7.42623ZM27.8852 33.5H33V21.9469C33 12.968 23.4473 13.2944 21.0656 17.7147V14.6978H15.9508V33.5H21.0656V23.9211C21.0656 18.6001 27.8852 18.1642 27.8852 23.9211V33.5Z" fill="white"/>
</svg>
