<svg id="connectionsIcon" viewBox="0 0 17 17" fill="none" xmlns="http://www.w3.org/2000/svg">
<g clip-path="url(#clip0)">
<path d="M6.9978 9.03973C7.2841 9.42248 7.64937 9.73918 8.06884 9.96835C8.4883 10.1975 8.95214 10.3338 9.4289 10.3679C9.90567 10.4021 10.3842 10.3333 10.832 10.1662C11.2799 9.99919 11.6865 9.73777 12.0245 9.39973L14.0245 7.39973C14.6317 6.77105 14.9676 5.92904 14.9601 5.05506C14.9525 4.18107 14.6019 3.34502 13.9839 2.727C13.3658 2.10897 12.5298 1.75841 11.6558 1.75081C10.7818 1.74322 9.93981 2.0792 9.31114 2.68639L8.16447 3.82639" stroke="#181818" stroke-width="2" stroke-linecap="round" stroke-linejoin="round"/>
<path d="M9.66428 7.70631C9.37797 7.32355 9.0127 7.00685 8.59324 6.77768C8.17378 6.54851 7.70994 6.41223 7.23318 6.37808C6.75641 6.34394 6.27789 6.41273 5.83005 6.57979C5.38221 6.74684 4.97553 7.00826 4.63761 7.34631L2.63761 9.34631C2.03042 9.97498 1.69444 10.817 1.70203 11.691C1.70963 12.565 2.06019 13.401 2.67822 14.019C3.29624 14.6371 4.13228 14.9876 5.00627 14.9952C5.88026 15.0028 6.72227 14.6668 7.35094 14.0596L8.49094 12.9196" stroke="#181818" stroke-width="2" stroke-linecap="round" stroke-linejoin="round"/>
</g>
<defs>
<clipPath id="clip0">
<rect width="16" height="16" fill="white" transform="translate(0.331055 0.373047)"/>
</clipPath>
</defs>
</svg>
